<?xml version="1.0" encoding="UTF-8" standalone="no"?>
<!-- Created with Inkscape (http://www.inkscape.org/) -->

<svg
   xmlns:dc="http://purl.org/dc/elements/1.1/"
   xmlns:cc="http://creativecommons.org/ns#"
   xmlns:rdf="http://www.w3.org/1999/02/22-rdf-syntax-ns#"
   xmlns:svg="http://www.w3.org/2000/svg"
   xmlns="http://www.w3.org/2000/svg"
   xmlns:sodipodi="http://sodipodi.sourceforge.net/DTD/sodipodi-0.dtd"
   xmlns:inkscape="http://www.inkscape.org/namespaces/inkscape"
   width="1052.3622"
   height="744.09448"
   id="svg2"
   version="1.1"
   inkscape:version="0.48.4 r9939"
   sodipodi:docname="New document 1">
  <defs
     id="defs4" />
  <sodipodi:namedview
     id="base"
     pagecolor="#ffffff"
     bordercolor="#666666"
     borderopacity="1.0"
     inkscape:pageopacity="0.0"
     inkscape:pageshadow="2"
     inkscape:zoom="0.64049658"
     inkscape:cx="449.70095"
     inkscape:cy="278.99617"
     inkscape:document-units="px"
     inkscape:current-layer="layer1"
     showgrid="false"
     showguides="true"
     inkscape:guide-bbox="true"
     inkscape:window-width="1375"
     inkscape:window-height="876"
     inkscape:window-x="65"
     inkscape:window-y="24"
     inkscape:window-maximized="1" />
  <metadata
     id="metadata7">
    <rdf:RDF>
      <cc:Work
         rdf:about="">
        <dc:format>image/svg+xml</dc:format>
        <dc:type
           rdf:resource="http://purl.org/dc/dcmitype/StillImage" />
        <dc:title></dc:title>
      </cc:Work>
    </rdf:RDF>
  </metadata>
  <g
     inkscape:label="Layer 1"
     inkscape:groupmode="layer"
     id="layer1"
     transform="translate(0,-308.2677)">
    <rect
       style="fill:#d7f4d7;fill-opacity:1;stroke:#000000;stroke-width:2;stroke-miterlimit:4;stroke-opacity:1;stroke-dasharray:none"
       id="rect3906"
       width="87.21582"
       height="206.44759"
       x="564.14288"
       y="348.01163" />
    <rect
       style="fill:#d7f4d7;fill-opacity:1;stroke:#000000;stroke-width:2.08801699;stroke-miterlimit:4;stroke-opacity:1;stroke-dasharray:none"
       id="rect3906-6-1"
       width="82.7118"
       height="237.2715"
       x="11.635991"
       y="324.87167" />
    <rect
       style="fill:none;stroke:#000000;stroke-width:2.04779887;stroke-miterlimit:4;stroke-opacity:1;stroke-dasharray:none"
       id="rect2985"
       width="251.66368"
       height="237.31171"
       x="11.063876"
       y="324.85156" />
    <path
       sodipodi:type="arc"
       style="fill:#80ffb3;stroke:#000000;stroke-width:2;stroke-miterlimit:4;stroke-opacity:1;stroke-dasharray:none"
       id="path3755"
       sodipodi:cx="144.6237"
       sodipodi:cy="179.39963"
       sodipodi:rx="67.343864"
       sodipodi:ry="23.735952"
       d="m 211.96757,179.39963 a 67.343864,23.735952 0 1 1 -134.687731,0 67.343864,23.735952 0 1 1 134.687731,0 z"
       transform="translate(0,308.2677)" />
    <path
       style="fill:#afe9c6;stroke:#000000;stroke-width:2;stroke-miterlimit:4;stroke-opacity:1"
       d="m 76.175842,178.84763 68.447868,16.55997 69.55186,-15.45597 0,73.96785 -137.999728,0 z"
       id="rect3757"
       inkscape:connector-curvature="0"
       sodipodi:nodetypes="cccccc"
       transform="translate(0,308.2677)" />
    <rect
       style="fill:#aaeeff;fill-opacity:1;stroke:#000000;stroke-width:2;stroke-miterlimit:4;stroke-opacity:1;stroke-dasharray:none"
       id="rect3760"
       width="37.535923"
       height="30.911938"
       x="99.359795"
       y="89.42382"
       transform="translate(0,308.2677)" />
    <rect
       style="fill:#aaeeff;fill-opacity:1;stroke:#000000;stroke-width:2;stroke-miterlimit:4;stroke-opacity:1;stroke-dasharray:none"
       id="rect3762"
       width="35.327927"
       height="33.119934"
       x="154.55969"
       y="103.77579"
       transform="translate(0,308.2677)" />
    <rect
       style="fill:#aaeeff;fill-opacity:1;stroke:#000000;stroke-width:2;stroke-miterlimit:4;stroke-opacity:1;stroke-dasharray:none"
       id="rect3764"
       width="37.535923"
       height="33.119934"
       x="137.99973"
       y="45.263908"
       transform="translate(0,308.2677)" />
    <text
       xml:space="preserve"
       style="font-size:23.54208755px;font-style:normal;font-weight:normal;line-height:125%;letter-spacing:0px;word-spacing:0px;fill:#000000;fill-opacity:1;stroke:none;font-family:Sans"
       x="44.767036"
       y="492.89261"
       id="text3766"
       sodipodi:linespacing="125%"
       transform="scale(0.83920314,1.1916066)"><tspan
         sodipodi:role="line"
         id="tspan3768"
         x="44.767036"
         y="492.89261">Opening Shot:</tspan><tspan
         sodipodi:role="line"
         x="44.767036"
         y="522.32019"
         id="tspan3770">(Camera pans out, 3)</tspan></text>
    <rect
       style="fill:#d7f4d7;fill-opacity:1;stroke:#000000;stroke-width:2.53841996;stroke-miterlimit:4;stroke-opacity:1;stroke-dasharray:none"
       id="rect3906-6"
       width="124.21331"
       height="233.50911"
       x="273.50867"
       y="326.75287" />
    <path
       style="fill:#aaeeff;fill-opacity:1;stroke:#000000;stroke-width:2.01413226;stroke-miterlimit:4;stroke-opacity:1"
       d="m 526.59983,536.24323 c 0,24.68981 -42.08989,27.04088 -128.05666,27.04088 -85.96677,0 -126.95267,-8.97506 -126.95267,-33.66486 0,-24.6898 38.7779,-38.08086 124.74467,-38.08086 85.96677,0 130.26466,20.01504 130.26466,44.70484 z"
       id="path3807"
       inkscape:connector-curvature="0"
       sodipodi:nodetypes="sssss" />
    <path
       style="fill:#ffccaa;stroke:#000000;stroke-width:0.81489491px;stroke-linecap:butt;stroke-linejoin:miter;stroke-opacity:1"
       d="m 472.82738,381.61796 -20.61638,-7.46656 -23.72068,9.62482 19.69658,20.87372 19.79,3.67333 29.33289,5.36282 14.7886,6.18036 13.14109,5.37376 0.0378,-32.04638 -22.80088,-3.78231 z"
       id="path3814"
       inkscape:connector-curvature="0"
       sodipodi:nodetypes="ccccccccccc" />
    <rect
       style="fill:none;stroke:#000000;stroke-width:2.04779887;stroke-miterlimit:4;stroke-opacity:1;stroke-dasharray:none"
       id="rect2985-6"
       width="251.66368"
       height="237.31171"
       x="272.71136"
       y="325.40356" />
    <path
       transform="matrix(0.36906322,0,0,0.37492274,363.18014,400.51569)"
       sodipodi:type="arc"
       style="fill:#80ffb3;stroke:#000000;stroke-width:2;stroke-miterlimit:4;stroke-opacity:1;stroke-dasharray:none"
       id="path3755-1"
       sodipodi:cx="144.6237"
       sodipodi:cy="179.39963"
       sodipodi:rx="67.343864"
       sodipodi:ry="23.735952"
       d="m 211.96757,179.39963 a 67.343864,23.735952 0 1 1 -134.687731,0 67.343864,23.735952 0 1 1 134.687731,0 z" />
    <rect
       style="fill:#aaeeff;fill-opacity:1;stroke:#000000;stroke-width:0.74396288;stroke-miterlimit:4;stroke-opacity:1;stroke-dasharray:none"
       id="rect3762-1"
       width="13.038239"
       height="12.417417"
       x="419.11841"
       y="508.97543" />
    <rect
       style="fill:#aaeeff;fill-opacity:1;stroke:#000000;stroke-width:0.74396288;stroke-miterlimit:4;stroke-opacity:1;stroke-dasharray:none"
       id="rect3760-7"
       width="13.853128"
       height="11.589589"
       x="394.33017"
       y="494.7626" />
    <rect
       style="fill:#aaeeff;fill-opacity:1;stroke:#000000;stroke-width:0.74396288;stroke-miterlimit:4;stroke-opacity:1;stroke-dasharray:none"
       id="rect3764-0"
       width="13.853128"
       height="12.417417"
       x="419.63074"
       y="472.68607" />
    <path
       style="fill:#afe9c6;stroke:#000000;stroke-width:1.12213731;stroke-miterlimit:4;stroke-opacity:1"
       d="m 391.47594,467.76607 24.42688,8.24146 26.13954,-7.293 0,63.54642 -25.83521,6.62399 -24.73121,-6.62399 z"
       id="rect3757-3"
       inkscape:connector-curvature="0"
       sodipodi:nodetypes="ccccccc" />
    <text
       xml:space="preserve"
       style="font-size:21.35484314px;font-style:normal;font-weight:normal;line-height:125%;letter-spacing:0px;word-spacing:0px;fill:#000000;fill-opacity:1;stroke:none;font-family:Sans"
       x="341.01926"
       y="418.82013"
       id="text3766-1"
       sodipodi:linespacing="125%"
       transform="scale(0.76123453,1.3136556)"><tspan
         sodipodi:role="line"
         id="tspan3768-6"
         x="341.01926"
         y="418.82013" /><tspan
         sodipodi:role="line"
         x="341.01926"
         y="445.51367"
         id="tspan3770-7">(Still panning out, hand retracts, 2)</tspan></text>
    <rect
       style="fill:none;stroke:#000000;stroke-width:2.04779887;stroke-miterlimit:4;stroke-opacity:1;stroke-dasharray:none"
       id="rect2985-6-1"
       width="251.66368"
       height="237.31171"
       x="531.04688"
       y="325.40359" />
    <path
       sodipodi:type="arc"
       style="fill:#ffccaa;fill-opacity:1;stroke:#000000;stroke-width:2;stroke-miterlimit:4;stroke-opacity:1;stroke-dasharray:none"
       id="path3858"
       sodipodi:cx="737.47052"
       sodipodi:cy="111.50377"
       sodipodi:rx="18.767962"
       sodipodi:ry="25.391949"
       d="m 756.23848,111.50377 a 18.767962,25.391949 0 1 1 -37.53592,0 18.767962,25.391949 0 1 1 37.53592,0 z"
       transform="matrix(1.5408517,0,0,1.1606295,-418.18213,296.9809)" />
    <path
       style="fill:none;stroke:#000000;stroke-width:1px;stroke-linecap:butt;stroke-linejoin:miter;stroke-opacity:1"
       d="m 718.70253,457.3074 0,83.90383"
       id="path3860"
       inkscape:connector-curvature="0" />
    <path
       style="fill:none;stroke:#000000;stroke-width:1px;stroke-linecap:butt;stroke-linejoin:miter;stroke-opacity:1"
       d="m 723.11852,484.90734 33.11993,-25.39195"
       id="path3862"
       inkscape:connector-curvature="0" />
    <path
       style="fill:none;stroke:#000000;stroke-width:1px;stroke-linecap:butt;stroke-linejoin:miter;stroke-opacity:1"
       d="M 708.76655,487.11534 664.60664,458.4114"
       id="path3864"
       inkscape:connector-curvature="0" />
    <path
       style="fill:none;stroke:#000000;stroke-width:1.66616797px;stroke-linecap:butt;stroke-linejoin:miter;stroke-opacity:1"
       d="m 718.36944,537.12833 c -4.64239,10.36782 -12.12112,18.77433 -18.10179,28.03776"
       id="path3866"
       inkscape:connector-curvature="0" />
    <path
       style="fill:none;stroke:#000000;stroke-width:1.3894248px;stroke-linecap:butt;stroke-linejoin:miter;stroke-opacity:1"
       d="m 718.89724,534.78195 22.79453,29.41852"
       id="path3868"
       inkscape:connector-curvature="0" />
    <rect
       style="fill:#aaeeff;fill-opacity:1;stroke:#000000;stroke-width:2.04746628;stroke-miterlimit:4;stroke-opacity:1;stroke-dasharray:none"
       id="rect3874"
       width="23.136486"
       height="45.216442"
       x="620.47052"
       y="518.05103" />
    <path
       sodipodi:type="arc"
       style="fill:#aaeeff;fill-opacity:1;stroke:#000000;stroke-width:2;stroke-miterlimit:4;stroke-opacity:1;stroke-dasharray:none"
       id="path3870"
       sodipodi:cx="679.51062"
       sodipodi:cy="212.51956"
       sodipodi:rx="80.039833"
       sodipodi:ry="9.3839808"
       d="m 759.55045,212.51956 a 80.039833,9.3839808 0 1 1 -160.07966,0 80.039833,9.3839808 0 1 1 160.07966,0 z"
       transform="translate(-50.783896,309.3717)" />
    <path
       sodipodi:type="arc"
       style="fill:#aaeeff;fill-opacity:1;stroke:#000000;stroke-width:2;stroke-miterlimit:4;stroke-opacity:1;stroke-dasharray:none"
       id="path3872"
       sodipodi:cx="683.37463"
       sodipodi:cy="222.45555"
       sodipodi:rx="77.279846"
       sodipodi:ry="9.3839808"
       d="m 760.65448,222.45555 a 77.279846,9.3839808 0 1 1 -154.55969,0 77.279846,9.3839808 0 1 1 154.55969,0 z"
       transform="matrix(1.0405518,0,0,1.3339561,-81.807968,218.52134)" />
    <path
       transform="matrix(0.14843266,0,0,0.14093824,639.74585,465.70022)"
       sodipodi:type="arc"
       style="fill:#80ffb3;stroke:#000000;stroke-width:2;stroke-miterlimit:4;stroke-opacity:1;stroke-dasharray:none"
       id="path3755-1-5"
       sodipodi:cx="144.6237"
       sodipodi:cy="179.39963"
       sodipodi:rx="67.343864"
       sodipodi:ry="23.735952"
       d="m 211.96757,179.39963 a 67.343864,23.735952 0 1 1 -134.687731,0 67.343864,23.735952 0 1 1 134.687731,0 z" />
    <path
       style="fill:#afe9c6;stroke:#000000;stroke-width:0.43631876;stroke-miterlimit:4;stroke-opacity:1"
       d="m 651.12607,490.9805 9.82419,3.09807 10.51299,-2.74153 0,23.88791 -10.1686,3.31199 -10.16858,-3.31199 z"
       id="rect3757-3-3"
       inkscape:connector-curvature="0"
       sodipodi:nodetypes="ccccccc" />
    <text
       xml:space="preserve"
       style="font-size:23.6320591px;font-style:normal;font-weight:normal;line-height:125%;letter-spacing:0px;word-spacing:0px;fill:#000000;fill-opacity:1;stroke:none;font-family:Sans"
       x="696.70544"
       y="484.8671"
       id="text3944"
       sodipodi:linespacing="125%"
       transform="scale(0.82651548,1.2098987)"><tspan
         sodipodi:role="line"
         id="tspan3946"
         x="696.70544"
         y="484.8671">(Stop panning, </tspan><tspan
         sodipodi:role="line"
         x="696.70544"
         y="514.40717"
         id="tspan3966">person sighs, 1)</tspan></text>
    <rect
       style="fill:none;stroke:#000000;stroke-width:2.04779887;stroke-miterlimit:4;stroke-opacity:1;stroke-dasharray:none"
       id="rect2985-6-1-1"
       width="251.66368"
       height="237.31171"
       x="793.79828"
       y="325.40356" />
    <path
       style="fill:#c87137;fill-opacity:1;stroke:#000000;stroke-width:2;stroke-miterlimit:4;stroke-opacity:1"
       d="m 836.83032,370.09157 23.18388,-19.87196 0,162.28768 -23.18388,19.87196 z"
       id="rect3968"
       inkscape:connector-curvature="0"
       sodipodi:nodetypes="ccccc" />
    <rect
       style="fill:none;fill-opacity:1;stroke:#000000;stroke-width:2;stroke-miterlimit:4;stroke-opacity:1;stroke-dasharray:none"
       id="rect3973"
       width="57.407883"
       height="163.39166"
       x="862.22223"
       y="41.951916"
       transform="translate(0,308.2677)" />
    <path
       sodipodi:type="arc"
       style="fill:#e9c6af;stroke:#000000;stroke-width:2;stroke-miterlimit:4;stroke-opacity:1;stroke-dasharray:none"
       id="path3975"
       sodipodi:cx="899.75818"
       sodipodi:cy="94.391808"
       sodipodi:rx="23.183952"
       sodipodi:ry="23.735952"
       d="m 922.94213,94.391808 a 23.183952,23.735952 0 1 1 -46.3679,0 23.183952,23.735952 0 1 1 46.3679,0 z"
       transform="translate(0,308.2677)" />
    <path
       style="fill:none;stroke:#000000;stroke-width:1px;stroke-linecap:butt;stroke-linejoin:miter;stroke-opacity:1"
       d="m 899.75816,123.64775 0,67.34386"
       id="path3977"
       inkscape:connector-curvature="0"
       transform="translate(0,308.2677)" />
    <path
       style="fill:none;stroke:#000000;stroke-width:1px;stroke-linecap:butt;stroke-linejoin:miter;stroke-opacity:1"
       d="m 898.65417,137.99972 -38.63992,-8.83198"
       id="path3981"
       inkscape:connector-curvature="0"
       transform="translate(0,308.2677)" />
    <path
       sodipodi:type="arc"
       style="fill:#e9c6af;fill-opacity:1;stroke:#000000;stroke-width:2;stroke-miterlimit:4;stroke-opacity:1;stroke-dasharray:none"
       id="path3985"
       sodipodi:cx="907.48615"
       sodipodi:cy="139.65572"
       sodipodi:rx="2.2079954"
       sodipodi:ry="3.8639922"
       d="m 909.69414,139.65572 a 2.2079954,3.8639922 0 1 1 -4.41599,0 2.2079954,3.8639922 0 1 1 4.41599,0 z"
       transform="translate(0,308.2677)" />
    <path
       style="fill:none;stroke:#000000;stroke-width:1px;stroke-linecap:butt;stroke-linejoin:miter;stroke-opacity:1"
       d="M 898.65417,192.09561 884.3022,224.11154"
       id="path3991"
       inkscape:connector-curvature="0"
       transform="translate(0,308.2677)" />
    <path
       style="fill:none;stroke:#000000;stroke-width:1px;stroke-linecap:butt;stroke-linejoin:miter;stroke-opacity:1"
       d="m 900.86216,499.25931 17.66397,40.84792"
       id="path3993"
       inkscape:connector-curvature="0" />
    <path
       style="fill:none;stroke:#000000;stroke-width:1px;stroke-linecap:butt;stroke-linejoin:miter;stroke-opacity:1"
       d="m 929.5661,96.047804 c 4.53341,-9.114554 8.29167,-17.507213 12.14398,-26.495946"
       id="path3995"
       inkscape:connector-curvature="0"
       transform="translate(0,308.2677)" />
    <path
       style="fill:none;stroke:#000000;stroke-width:1px;stroke-linecap:butt;stroke-linejoin:miter;stroke-opacity:1"
       d="m 937.29409,103.77579 20.97596,9.93598"
       id="path4001"
       inkscape:connector-curvature="0"
       transform="translate(0,308.2677)" />
    <path
       style="fill:none;stroke:#000000;stroke-width:1px;stroke-linecap:butt;stroke-linejoin:miter;stroke-opacity:1"
       d="m 943.91807,91.631813 24.28796,-7.727984"
       id="path4003"
       inkscape:connector-curvature="0"
       transform="translate(0,308.2677)" />
    <text
       xml:space="preserve"
       style="font-size:14.85760021px;font-style:normal;font-weight:normal;line-height:125%;letter-spacing:0px;word-spacing:0px;fill:#000000;fill-opacity:1;stroke:none;font-family:Sans"
       x="912.50562"
       y="517.37982"
       id="text4005"
       sodipodi:linespacing="125%"
       transform="scale(0.89347371,1.1192271)"
       inkscape:transform-center-x="-7.3276902"
       inkscape:transform-center-y="-6.2886263"><tspan
         sodipodi:role="line"
         x="912.50562"
         y="517.37982"
         id="tspan4011">(Camera switches to door,</tspan><tspan
         sodipodi:role="line"
         x="912.50562"
         y="535.95184"
         id="tspan4013">door is kicked in, much shouting</tspan><tspan
         sodipodi:role="line"
         x="912.50562"
         y="554.5238"
         id="tspan4015"> and hand waving. 7)</tspan><tspan
         sodipodi:role="line"
         x="912.50562"
         y="573.09583"
         id="tspan4009" /></text>
    <text
       xml:space="preserve"
       style="font-size:40px;font-style:normal;font-weight:normal;line-height:125%;letter-spacing:0px;word-spacing:0px;fill:#000000;fill-opacity:1;stroke:none;font-family:Sans"
       x="103.77579"
       y="589.53479"
       id="text4107"
       sodipodi:linespacing="125%"
       transform="translate(0,308.2677)"><tspan
         sodipodi:role="line"
         id="tspan4109"
         x="103.77579"
         y="589.53479" /></text>
    <rect
       style="fill:none;stroke:#000000;stroke-width:2.04779887;stroke-miterlimit:4;stroke-opacity:1;stroke-dasharray:none"
       id="rect2985-6-1-1-8"
       width="251.66368"
       height="237.31171"
       x="11.561554"
       y="637.06152" />
    <path
       style="fill:#c87137;fill-opacity:1;stroke:#000000;stroke-width:2;stroke-miterlimit:4;stroke-opacity:1"
       d="m 54.593596,681.74951 23.183881,-19.87196 0,162.28768 -23.183881,19.87196 z"
       id="rect3968-7"
       inkscape:connector-curvature="0"
       sodipodi:nodetypes="ccccc" />
    <rect
       style="fill:none;stroke:#000000;stroke-width:2;stroke-miterlimit:4;stroke-opacity:1;stroke-dasharray:none"
       id="rect3973-8"
       width="57.407883"
       height="163.39166"
       x="79.985512"
       y="661.87756" />
    <path
       style="fill:none;stroke:#000000;stroke-width:1px;stroke-linecap:butt;stroke-linejoin:miter;stroke-opacity:1"
       d="m 117.52144,743.57339 -2.75999,46.0919"
       id="path3977-9"
       inkscape:connector-curvature="0"
       sodipodi:nodetypes="cc" />
    <path
       transform="translate(-781.68473,632.89761)"
       sodipodi:type="arc"
       style="fill:#e9c6af;stroke:#000000;stroke-width:2;stroke-miterlimit:4;stroke-opacity:1;stroke-dasharray:none"
       id="path3975-1"
       sodipodi:cx="899.75818"
       sodipodi:cy="94.391808"
       sodipodi:rx="23.183952"
       sodipodi:ry="23.735952"
       d="m 922.94213,94.391808 a 23.183952,23.735952 0 1 1 -46.3679,0 23.183952,23.735952 0 1 1 46.3679,0 z" />
    <path
       transform="translate(-782.78873,628.75762)"
       sodipodi:type="arc"
       style="fill:#e9c6af;fill-opacity:1;stroke:#000000;stroke-width:2;stroke-miterlimit:4;stroke-opacity:1;stroke-dasharray:none"
       id="path3985-7"
       sodipodi:cx="907.48615"
       sodipodi:cy="139.65572"
       sodipodi:rx="2.2079954"
       sodipodi:ry="3.8639922"
       d="m 909.69414,139.65572 a 2.2079954,3.8639922 0 1 1 -4.41599,0 2.2079954,3.8639922 0 1 1 4.41599,0 z" />
    <path
       style="fill:none;stroke:#000000;stroke-width:1px;stroke-linecap:butt;stroke-linejoin:miter;stroke-opacity:1"
       d="m 113.93345,789.6653 -11.86798,16.55996"
       id="path3991-8"
       inkscape:connector-curvature="0"
       sodipodi:nodetypes="cc" />
    <path
       style="fill:none;stroke:#000000;stroke-width:1px;stroke-linecap:butt;stroke-linejoin:miter;stroke-opacity:1"
       d="m 118.95576,447.11908 4.96799,8.83199"
       id="path4191"
       inkscape:connector-curvature="0"
       transform="translate(0,308.2677)"
       sodipodi:nodetypes="cc" />
    <path
       transform="translate(-796.25837,616.83507)"
       sodipodi:type="arc"
       style="fill:#e9c6af;fill-opacity:1;stroke:#000000;stroke-width:2;stroke-miterlimit:4;stroke-opacity:1;stroke-dasharray:none"
       id="path3985-7-8"
       sodipodi:cx="907.48615"
       sodipodi:cy="139.65572"
       sodipodi:rx="2.2079954"
       sodipodi:ry="3.8639922"
       d="m 909.69414,139.65572 a 2.2079954,3.8639922 0 1 1 -4.41599,0 2.2079954,3.8639922 0 1 1 4.41599,0 z" />
    <path
       style="fill:none;stroke:#000000;stroke-width:1px;stroke-linecap:butt;stroke-linejoin:miter;stroke-opacity:1"
       d="m 111.22777,761.18277 0,7.72799"
       id="path4211"
       inkscape:connector-curvature="0"
       sodipodi:nodetypes="cc" />
    <path
       transform="translate(-791.01438,655.19899)"
       sodipodi:type="arc"
       style="fill:#e9c6af;fill-opacity:1;stroke:#000000;stroke-width:2;stroke-miterlimit:4;stroke-opacity:1;stroke-dasharray:none"
       id="path3985-7-3"
       sodipodi:cx="907.48615"
       sodipodi:cy="139.65572"
       sodipodi:rx="2.2079954"
       sodipodi:ry="3.8639922"
       d="m 909.69414,139.65572 a 2.2079954,3.8639922 0 1 1 -4.41599,0 2.2079954,3.8639922 0 1 1 4.41599,0 z" />
    <text
       xml:space="preserve"
       style="font-size:25.66151237px;font-style:normal;font-weight:normal;line-height:125%;letter-spacing:0px;word-spacing:0px;fill:#000000;fill-opacity:1;stroke:none;font-family:Sans"
       x="13.45472"
       y="855.11139"
       id="text4231"
       sodipodi:linespacing="125%"
       transform="scale(0.95475858,1.0473852)"><tspan
         sodipodi:role="line"
         id="tspan4233"
         x="13.45472"
         y="855.11139">(Runs in, camera</tspan><tspan
         sodipodi:role="line"
         x="13.45472"
         y="887.18829"
         id="tspan4235">follows from side, 3)</tspan></text>
    <rect
       style="fill:#d7f4d7;fill-opacity:1;stroke:#000000;stroke-width:2;stroke-miterlimit:4;stroke-opacity:1;stroke-dasharray:none"
       id="rect3906-0"
       width="87.21582"
       height="206.44759"
       x="305.39276"
       y="660.10083" />
    <rect
       style="fill:none;stroke:#000000;stroke-width:2.04779887;stroke-miterlimit:4;stroke-opacity:1;stroke-dasharray:none"
       id="rect2985-6-1-4"
       width="251.66368"
       height="237.31171"
       x="272.29675"
       y="637.4928" />
    <path
       sodipodi:type="arc"
       style="fill:#ffccaa;fill-opacity:1;stroke:#000000;stroke-width:2;stroke-miterlimit:4;stroke-opacity:1;stroke-dasharray:none"
       id="path3858-3"
       sodipodi:cx="737.47052"
       sodipodi:cy="111.50377"
       sodipodi:rx="18.767962"
       sodipodi:ry="25.391949"
       d="m 756.23848,111.50377 a 18.767962,25.391949 0 1 1 -37.53592,0 18.767962,25.391949 0 1 1 37.53592,0 z"
       transform="matrix(1.5408517,0,0,1.1606295,-676.93226,609.07011)" />
    <path
       style="fill:none;stroke:#000000;stroke-width:1px;stroke-linecap:butt;stroke-linejoin:miter;stroke-opacity:1"
       d="m 459.9524,769.39661 0,83.90383"
       id="path3860-8"
       inkscape:connector-curvature="0" />
    <path
       style="fill:none;stroke:#000000;stroke-width:1px;stroke-linecap:butt;stroke-linejoin:miter;stroke-opacity:1"
       d="M 464.36839,796.99655 497.48832,771.6046"
       id="path3862-4"
       inkscape:connector-curvature="0" />
    <path
       style="fill:none;stroke:#000000;stroke-width:1px;stroke-linecap:butt;stroke-linejoin:miter;stroke-opacity:1"
       d="M 450.01642,799.20455 405.85651,770.50061"
       id="path3864-1"
       inkscape:connector-curvature="0" />
    <path
       style="fill:none;stroke:#000000;stroke-width:1.66616797px;stroke-linecap:butt;stroke-linejoin:miter;stroke-opacity:1"
       d="m 459.61931,849.21754 c -4.64239,10.36782 -12.12112,18.77433 -18.10179,28.03776"
       id="path3866-1"
       inkscape:connector-curvature="0" />
    <path
       style="fill:none;stroke:#000000;stroke-width:1.3894248px;stroke-linecap:butt;stroke-linejoin:miter;stroke-opacity:1"
       d="m 460.14711,846.87116 22.79453,29.41852"
       id="path3868-5"
       inkscape:connector-curvature="0" />
    <rect
       style="fill:#aaeeff;fill-opacity:1;stroke:#000000;stroke-width:2.04746628;stroke-miterlimit:4;stroke-opacity:1;stroke-dasharray:none"
       id="rect3874-2"
       width="23.136486"
       height="45.216442"
       x="361.7204"
       y="830.1402" />
    <path
       sodipodi:type="arc"
       style="fill:#aaeeff;fill-opacity:1;stroke:#000000;stroke-width:2;stroke-miterlimit:4;stroke-opacity:1;stroke-dasharray:none"
       id="path3870-8"
       sodipodi:cx="679.51062"
       sodipodi:cy="212.51956"
       sodipodi:rx="80.039833"
       sodipodi:ry="9.3839808"
       d="m 759.55045,212.51956 a 80.039833,9.3839808 0 1 1 -160.07966,0 80.039833,9.3839808 0 1 1 160.07966,0 z"
       transform="translate(-309.53402,621.46091)" />
    <path
       sodipodi:type="arc"
       style="fill:#aaeeff;fill-opacity:1;stroke:#000000;stroke-width:2;stroke-miterlimit:4;stroke-opacity:1;stroke-dasharray:none"
       id="path3872-4"
       sodipodi:cx="683.37463"
       sodipodi:cy="222.45555"
       sodipodi:rx="77.279846"
       sodipodi:ry="9.3839808"
       d="m 760.65448,222.45555 a 77.279846,9.3839808 0 1 1 -154.55969,0 77.279846,9.3839808 0 1 1 154.55969,0 z"
       transform="matrix(1.0405518,0,0,1.3339561,-340.55809,530.61055)" />
    <path
       transform="matrix(0.14843266,0,0,0.14093824,380.99572,777.78943)"
       sodipodi:type="arc"
       style="fill:#80ffb3;stroke:#000000;stroke-width:2;stroke-miterlimit:4;stroke-opacity:1;stroke-dasharray:none"
       id="path3755-1-5-6"
       sodipodi:cx="144.6237"
       sodipodi:cy="179.39963"
       sodipodi:rx="67.343864"
       sodipodi:ry="23.735952"
       d="m 211.96757,179.39963 a 67.343864,23.735952 0 1 1 -134.687731,0 67.343864,23.735952 0 1 1 134.687731,0 z" />
    <path
       style="fill:#afe9c6;stroke:#000000;stroke-width:0.43631876;stroke-miterlimit:4;stroke-opacity:1"
       d="m 392.37594,803.06971 9.82419,3.09807 10.51299,-2.74153 0,23.88791 -10.1686,3.31199 -10.16858,-3.31199 z"
       id="rect3757-3-3-3"
       inkscape:connector-curvature="0"
       sodipodi:nodetypes="ccccccc" />
    <path
       sodipodi:type="arc"
       style="fill:#e9c6af;fill-opacity:1;stroke:#000000;stroke-width:2;stroke-miterlimit:4;stroke-opacity:1;stroke-dasharray:none"
       id="path4291"
       sodipodi:cx="355.19315"
       sodipodi:cy="474.77219"
       sodipodi:rx="25.761261"
       sodipodi:ry="30.445127"
       d="m 380.95441,474.77219 a 25.761261,30.445127 0 1 1 -51.52253,0 25.761261,30.445127 0 1 1 51.52253,0 z"
       transform="matrix(1.1190056,0,0,0.99813295,-42.269977,296.66381)" />
    <path
       style="fill:none;stroke:#000000;stroke-width:1px;stroke-linecap:butt;stroke-linejoin:miter;stroke-opacity:1"
       d="m 337.23834,800.99472 c -11.64178,19.08354 -20.58465,39.83832 -28.1032,60.89025"
       id="path4293"
       inkscape:connector-curvature="0" />
    <path
       style="fill:none;stroke:#000000;stroke-width:1px;stroke-linecap:butt;stroke-linejoin:miter;stroke-opacity:1"
       d="m 338.79963,821.29147 51.52252,-21.85804"
       id="path4297"
       inkscape:connector-curvature="0" />
    <text
       xml:space="preserve"
       style="font-size:25.2773571px;font-style:normal;font-weight:normal;line-height:125%;letter-spacing:0px;word-spacing:0px;fill:#000000;fill-opacity:1;stroke:none;font-family:Sans"
       x="418.4873"
       y="622.9541"
       id="text4299"
       sodipodi:linespacing="125%"
       transform="scale(0.68738079,1.4547977)"><tspan
         sodipodi:role="line"
         id="tspan4301"
         x="418.4873"
         y="622.9541">(Tackles to the ground, 2)</tspan></text>
    <rect
       style="fill:none;stroke:#000000;stroke-width:2.04779887;stroke-miterlimit:4;stroke-opacity:1;stroke-dasharray:none"
       id="rect2985-6-1-4-2"
       width="251.66368"
       height="237.31171"
       x="528.34808"
       y="637.06152" />
    <path
       style="fill:#241f1c;fill-opacity:1;stroke:#000000;stroke-width:2;stroke-miterlimit:4;stroke-opacity:1"
       d="m 569.87036,713.56255 118.65795,0 35.90964,34.34836 -35.90964,37.47092 -118.65795,0 z"
       id="rect4321"
       inkscape:connector-curvature="0"
       sodipodi:nodetypes="cccccc" />
    <path
       style="fill:none;stroke:#000000;stroke-width:1px;stroke-linecap:butt;stroke-linejoin:miter;stroke-opacity:1"
       d="m 613.58642,811.92374 c -18.77908,-19.49275 -22.97945,-41.66328 -28.1032,-65.57412"
       id="path4324"
       inkscape:connector-curvature="0" />
    <path
       style="fill:none;stroke:#000000;stroke-width:1px;stroke-linecap:butt;stroke-linejoin:miter;stroke-opacity:1"
       d="m 621.39286,682.33679 c 0.7272,28.28411 13.74051,47.71438 31.22577,68.69669"
       id="path4326"
       inkscape:connector-curvature="0" />
    <path
       style="fill:none;stroke:#000000;stroke-width:1px;stroke-linecap:butt;stroke-linejoin:miter;stroke-opacity:1"
       d="M 677.59925,808.80116 C 643.21204,795.97483 638.1988,776.78185 621.39286,749.47219"
       id="path4328"
       inkscape:connector-curvature="0" />
    <text
       xml:space="preserve"
       style="font-size:20.04242706px;font-style:normal;font-weight:normal;line-height:125%;letter-spacing:0px;word-spacing:0px;fill:#000000;fill-opacity:1;stroke:none;font-family:Sans"
       x="764.57294"
       y="614.24658"
       id="text4330"
       sodipodi:linespacing="125%"
       transform="scale(0.68078519,1.4688921)"><tspan
         sodipodi:role="line"
         x="764.57294"
         y="614.24658"
         id="tspan4334">(Slow motion shot, bullet zings through</tspan><tspan
         sodipodi:role="line"
         x="764.57294"
         y="639.29962"
         id="tspan4338"> the room and hits opposit wall, 8)</tspan></text>
    <rect
       style="fill:none;stroke:#000000;stroke-width:2;stroke-miterlimit:4;stroke-opacity:1;stroke-dasharray:none"
       id="rect4340"
       width="266.98035"
       height="245.12231"
       x="786.8894"
       y="646.42712" />
    <path
       sodipodi:type="arc"
       style="fill:#ffccaa;fill-opacity:1;stroke:#000000;stroke-width:2;stroke-miterlimit:4;stroke-opacity:1;stroke-dasharray:none"
       id="path3858-3-9"
       sodipodi:cx="737.47052"
       sodipodi:cy="111.50377"
       sodipodi:rx="18.767962"
       sodipodi:ry="25.391949"
       d="m 756.23848,111.50377 a 18.767962,25.391949 0 1 1 -37.53592,0 18.767962,25.391949 0 1 1 37.53592,0 z"
       transform="matrix(1.5408517,0,0,1.1606295,-129.30157,682.50918)" />
    <path
       sodipodi:type="arc"
       style="fill:#ffccaa;fill-opacity:1;stroke:#000000;stroke-width:2;stroke-miterlimit:4;stroke-opacity:1;stroke-dasharray:none"
       id="path3858-3-1"
       sodipodi:cx="737.47052"
       sodipodi:cy="111.50377"
       sodipodi:rx="18.767962"
       sodipodi:ry="25.391949"
       d="m 756.23848,111.50377 a 18.767962,25.391949 0 1 1 -37.53592,0 18.767962,25.391949 0 1 1 37.53592,0 z"
       transform="matrix(1.5408517,0,0,1.1606295,-210.48857,673.14144)" />
    <path
       style="fill:none;stroke:#000000;stroke-width:1px;stroke-linecap:butt;stroke-linejoin:miter;stroke-opacity:1"
       d="m 996.10212,547.37212 -26.54191,35.90964"
       id="path4367"
       inkscape:connector-curvature="0"
       transform="translate(0,308.2677)" />
    <path
       style="fill:none;stroke:#000000;stroke-width:1px;stroke-linecap:butt;stroke-linejoin:miter;stroke-opacity:1"
       d="m 911.79254,536.4431 -43.71608,42.15479"
       id="path4369"
       inkscape:connector-curvature="0"
       transform="translate(0,308.2677)" />
    <path
       style="fill:none;stroke:#000000;stroke-width:1px;stroke-linecap:butt;stroke-linejoin:miter;stroke-opacity:1"
       d="m 996.10212,558.30114 20.29678,14.0516"
       id="path4371"
       inkscape:connector-curvature="0"
       transform="translate(0,308.2677)" />
    <path
       style="fill:none;stroke:#000000;stroke-width:1px;stroke-linecap:butt;stroke-linejoin:miter;stroke-opacity:1"
       d="m 969.56021,556.73985 -31.22577,9.36773"
       id="path4373"
       inkscape:connector-curvature="0"
       transform="translate(0,308.2677)" />
    <path
       style="fill:none;stroke:#000000;stroke-width:1px;stroke-linecap:butt;stroke-linejoin:miter;stroke-opacity:1"
       d="m 913.35382,555.17856 3.12258,21.85804"
       id="path4375"
       inkscape:connector-curvature="0"
       transform="translate(0,308.2677)" />
    <path
       style="fill:none;stroke:#000000;stroke-width:1px;stroke-linecap:butt;stroke-linejoin:miter;stroke-opacity:1"
       d="M 880.56676,538.00439 836.85068,536.4431"
       id="path4377"
       inkscape:connector-curvature="0"
       transform="translate(0,308.2677)" />
    <path
       style="fill:none;stroke:#000000;stroke-width:1px;stroke-linecap:butt;stroke-linejoin:miter;stroke-opacity:1"
       d="m 1008.5924,420.90774 c 1.7618,10.25841 0.7416,20.84364 0,31.22578"
       id="path4379"
       inkscape:connector-curvature="0"
       transform="translate(0,308.2677)" />
    <path
       style="fill:none;stroke:#000000;stroke-width:1px;stroke-linecap:butt;stroke-linejoin:miter;stroke-opacity:1"
       d="m 1007.0311,458.37867 c 0,0 0,0 0,0 z"
       id="path4381"
       inkscape:connector-curvature="0"
       transform="translate(0,308.2677)" />
    <text
       xml:space="preserve"
       style="font-size:22.03385162px;font-style:normal;font-weight:normal;line-height:125%;letter-spacing:0px;word-spacing:0px;fill:#000000;fill-opacity:1;stroke:none;font-family:Sans"
       x="1372.2704"
       y="526.31537"
       id="text4383"
       sodipodi:linespacing="125%"
       transform="matrix(0.57399669,0.00676938,0,1.7421703,0,0)"><tspan
         sodipodi:role="line"
         id="tspan4385"
         x="1372.2704"
         y="526.31537">(Shocked staring, gratitude, end scene, 3)</tspan></text>
  </g>
</svg>
